<svg width="630" height="913" viewBox="0 0 630 913" fill="none" xmlns="http://www.w3.org/2000/svg">
<g clip-path="url(#clip0)">
<rect width="630" height="913" fill="#184954"/>
<path d="M418.946 661.48C418.799 661.258 418.283 661.343 418.06 661.231C417.836 661.119 417.908 660.808 418.949 659.783C419.054 659.685 419.159 659.589 419.264 659.491C419.37 659.396 419.48 659.304 419.586 659.211C419.802 659.028 420.017 658.846 420.231 658.665C420.662 658.306 421.088 657.95 421.53 657.624C421.969 657.293 422.408 656.971 422.845 656.654C423.288 656.345 423.737 656.052 424.18 655.758C424.404 655.613 424.625 655.467 424.847 655.323C425.073 655.186 425.298 655.049 425.523 654.914C425.974 654.646 426.424 654.379 426.872 654.113C427.328 653.863 427.782 653.614 428.236 653.364L428.916 652.996L429.605 652.644C430.064 652.41 430.522 652.176 430.981 651.942C431.444 651.716 431.907 651.491 432.372 651.264C432.604 651.151 432.833 651.031 433.068 650.923C433.303 650.813 433.537 650.701 433.772 650.591C434.007 650.478 434.241 650.365 434.476 650.252C434.712 650.138 434.944 650.019 435.184 649.912C435.66 649.69 436.136 649.464 436.614 649.23C436.733 649.171 436.853 649.112 436.972 649.053C437.093 648.997 437.215 648.94 437.335 648.883C437.577 648.768 437.82 648.65 438.064 648.533C438.307 648.413 438.549 648.292 438.794 648.17C439.037 648.045 439.287 647.932 439.535 647.808C440.031 647.566 440.528 647.308 441.033 647.048C441.113 646.703 441.212 646.35 441.308 645.998C447.933 643.516 455.084 641.833 462.387 640.987L463.638 640.761L464.892 640.565C465.727 640.425 466.567 640.324 467.405 640.21C467.823 640.149 468.243 640.107 468.664 640.061L469.923 639.923L471.185 639.813C471.605 639.779 472.025 639.733 472.446 639.712C475.81 639.479 479.178 639.426 482.531 639.552C485.883 639.691 489.218 640.013 492.516 640.508C492.93 640.563 493.339 640.637 493.75 640.707L494.982 640.914L496.208 641.151C496.615 641.232 497.027 641.302 497.432 641.396C498.242 641.577 499.06 641.737 499.864 641.943L501.075 642.235L502.277 642.556C502.051 642.154 501.984 641.827 503.302 642.086C506.001 642.774 509.123 643.901 512.399 645.381C515.683 646.847 519.088 648.717 522.435 650.78C522.944 651.066 523.451 651.351 523.957 651.636C524.213 651.775 524.459 651.926 524.706 652.075C524.954 652.223 525.201 652.371 525.446 652.518C526.309 652.847 526.676 652.738 526.911 652.664C529.842 654.724 532.283 656.769 534.428 658.777C536.319 660.294 538.151 661.894 539.917 663.575C540.355 663.999 540.792 664.424 541.23 664.849C541.657 665.286 542.083 665.723 542.51 666.16C542.727 666.375 542.933 666.6 543.141 666.826L543.764 667.5C543.971 667.726 544.185 667.946 544.386 668.177L544.993 668.869C548.248 672.549 551.173 676.554 553.767 680.795C554.085 681.329 554.404 681.865 554.721 682.4C555.026 682.944 555.33 683.487 555.636 684.032C555.712 684.168 555.79 684.303 555.863 684.442L556.08 684.857L556.516 685.687C556.659 685.965 556.813 686.238 556.948 686.52L557.363 687.365C558.469 689.616 559.482 691.927 560.395 694.29C562.203 699.026 563.613 703.975 564.583 709.083C565.546 714.192 566.052 719.46 566.092 724.812C566.112 727.489 566.012 730.187 565.792 732.897C565.567 735.607 565.216 738.327 564.744 741.049C563.799 746.493 562.353 751.942 560.395 757.306C559.416 759.988 558.309 762.65 557.073 765.277C555.835 767.903 554.465 770.495 552.969 773.039C551.781 775.238 550.509 777.406 549.151 779.526C547.78 781.638 546.325 783.701 544.794 785.701C541.717 789.692 538.305 793.418 534.633 796.744C531.882 799.169 528.761 801.573 525.395 803.821L525.081 804.034L524.761 804.24C524.547 804.377 524.333 804.514 524.119 804.651C523.689 804.924 523.261 805.205 522.826 805.473C522.387 805.738 521.947 806.003 521.508 806.269C521.287 806.402 521.067 806.535 520.846 806.668C520.623 806.795 520.398 806.923 520.174 807.051C519.725 807.305 519.276 807.561 518.825 807.817C518.373 808.069 517.913 808.308 517.457 808.553C516.548 809.051 515.616 809.506 514.69 809.972C514.228 810.21 513.757 810.421 513.289 810.643C512.821 810.86 512.356 811.087 511.885 811.298C511.413 811.505 510.942 811.712 510.472 811.92C510.236 812.023 510.002 812.126 509.767 812.228C509.529 812.326 509.293 812.424 509.057 812.52C508.584 812.715 508.112 812.909 507.642 813.102C507.168 813.285 506.696 813.467 506.224 813.647C505.285 814.019 504.336 814.34 503.402 814.678L503.052 814.803L502.7 814.919C502.466 814.996 502.232 815.073 501.999 815.15C501.532 815.303 501.07 815.462 500.606 815.607C500.142 815.749 499.68 815.889 499.221 816.029C498.992 816.099 498.763 816.169 498.535 816.24C498.306 816.304 498.078 816.369 497.85 816.433C497.396 816.561 496.943 816.688 496.495 816.814C496.272 816.88 496.047 816.938 495.823 816.995C495.599 817.052 495.376 817.109 495.154 817.167C494.71 817.282 494.27 817.395 493.834 817.508C493.396 817.61 492.961 817.713 492.531 817.814C492.871 818.122 492.652 818.542 492.007 819.049C491.685 819.303 491.254 819.558 490.735 819.84C490.215 820.116 489.609 820.419 488.927 820.702C488.586 820.847 488.227 820.994 487.854 821.144C487.666 821.218 487.475 821.294 487.281 821.37C487.086 821.441 486.887 821.513 486.685 821.585C485.877 821.871 485.018 822.179 484.122 822.447C483.672 822.585 483.216 822.725 482.754 822.867C482.291 823.001 481.821 823.128 481.348 823.258C481.111 823.323 480.873 823.388 480.635 823.453L480.277 823.551L479.919 823.64C479.438 823.759 478.959 823.879 478.482 823.996C474.654 824.936 470.894 825.604 468.523 826.207C468.375 826.247 468.232 826.287 468.095 826.326C467.958 826.362 467.826 826.4 467.701 826.437C467.451 826.513 467.225 826.588 467.027 826.667C466.629 826.822 466.338 826.984 466.177 827.153C465.855 827.492 466.051 827.86 466.944 828.267C466.629 828.258 466.31 828.249 465.986 828.241C465.824 828.237 465.661 828.232 465.497 828.228C465.333 828.22 465.169 828.211 465.003 828.204C464.34 828.171 463.663 828.136 462.975 828.102C462.289 828.053 461.593 828.002 460.891 827.951C460.539 827.929 460.188 827.891 459.836 827.859C459.484 827.825 459.131 827.792 458.778 827.759C455.956 827.481 453.137 827.093 450.616 826.691C449.36 826.472 448.168 826.286 447.094 826.08C446.015 825.887 445.044 825.714 444.218 825.566C443.387 825.432 442.704 825.316 442.191 825.265C441.679 825.213 441.341 825.222 441.213 825.302C441.022 825.421 440.807 825.54 440.57 825.647C440.333 825.753 440.072 825.853 439.782 825.945C439.204 826.13 438.511 826.287 437.68 826.397C436.855 826.491 435.886 826.549 434.757 826.531C433.634 826.497 432.338 826.419 430.871 826.205C427.931 825.795 424.254 824.968 419.76 823.35C419.478 823.252 419.196 823.144 418.91 823.033C418.625 822.922 418.336 822.809 418.043 822.695C417.458 822.466 416.855 822.231 416.25 821.964C415.643 821.701 415.018 821.432 414.384 821.145C413.754 820.85 413.11 820.543 412.45 820.225C409.827 818.929 407.015 817.366 404.056 815.448C402.911 814.681 401.741 813.795 400.539 812.859C399.948 812.38 399.349 811.889 398.746 811.388C398.148 810.881 397.558 810.352 396.961 809.825C394.595 807.691 392.316 805.365 390.293 803.116C388.26 800.876 386.513 798.69 385.087 796.91C383.666 795.126 382.597 793.722 381.906 793.037C380.923 792.065 380.808 792.291 381.127 793.116C381.168 793.219 381.214 793.332 381.267 793.453C381.323 793.577 381.398 793.724 381.471 793.87C381.622 794.167 381.797 794.496 381.988 794.847C382.178 795.197 382.386 795.568 382.601 795.949C382.821 796.326 383.055 796.711 383.288 797.098C383.521 797.485 383.753 797.872 383.98 798.248C384.206 798.625 384.438 798.981 384.646 799.324C385.069 800.005 385.42 800.612 385.651 801.051C386.119 801.922 386.03 802.177 384.845 801.148C391.541 809.096 399.433 816.034 408.185 821.672C416.934 827.317 426.544 831.642 436.598 834.554C446.653 837.468 457.161 838.962 467.738 839.003C478.313 839.051 488.958 837.621 499.274 834.791C509.589 831.961 519.58 827.728 528.832 822.231C529.121 822.06 529.413 821.892 529.7 821.718L530.559 821.189C531.13 820.834 531.704 820.483 532.272 820.124L533.962 819.021C534.242 818.836 534.528 818.657 534.804 818.466L535.635 817.895C537.864 816.389 540.017 814.777 542.144 813.131C543.193 812.289 544.254 811.461 545.278 810.585L546.052 809.935C546.309 809.718 546.569 809.503 546.819 809.278L548.335 807.941C550.337 806.136 552.303 804.284 554.181 802.347C561.732 794.633 568.273 785.904 573.495 776.467C578.724 767.036 582.661 756.915 585.147 746.465C585.496 744.673 585.933 742.233 586.375 739.22C586.813 736.207 587.228 732.615 587.455 728.525C587.504 727.502 587.569 726.45 587.588 725.367C587.602 724.826 587.617 724.278 587.631 723.722C587.633 723.166 587.635 722.604 587.637 722.034C587.638 721.749 587.639 721.462 587.64 721.175C587.64 720.886 587.63 720.596 587.626 720.305C587.614 719.722 587.603 719.132 587.591 718.536C587.574 717.94 587.542 717.337 587.517 716.728C587.504 716.423 587.491 716.117 587.477 715.809C587.462 715.502 587.437 715.193 587.418 714.882C587.375 714.262 587.333 713.634 587.29 713.001C587.233 712.37 587.174 711.731 587.116 711.087C587.084 710.766 587.06 710.441 587.022 710.116C586.985 709.793 586.947 709.467 586.91 709.139C586.871 708.813 586.833 708.484 586.796 708.154C586.777 707.989 586.757 707.824 586.738 707.658C586.715 707.493 586.692 707.327 586.669 707.161C586.576 706.498 586.481 705.829 586.386 705.155C586.285 704.481 586.166 703.805 586.054 703.123C585.995 702.782 585.944 702.438 585.878 702.096C585.813 701.754 585.747 701.411 585.68 701.065C585.545 700.376 585.423 699.679 585.265 698.984C584.689 696.193 583.957 693.353 583.105 690.477C582.998 690.118 582.89 689.757 582.782 689.396C582.677 689.033 582.552 688.676 582.438 688.314C582.32 687.954 582.202 687.592 582.085 687.229C581.967 686.865 581.849 686.502 581.718 686.14C581.461 685.418 581.204 684.691 580.943 683.959C580.666 683.236 580.387 682.508 580.107 681.776C577.795 675.949 574.893 670.091 571.346 664.428C567.793 658.772 563.63 653.305 558.861 648.202C554.097 643.102 548.731 638.386 542.884 634.241C537.041 630.095 530.725 626.515 524.123 623.61C517.521 620.702 510.638 618.465 503.686 616.917C496.734 615.365 489.713 614.5 482.827 614.272C475.942 614.039 469.195 614.437 462.764 615.335C462.362 615.394 461.961 615.453 461.562 615.511C461.163 615.57 460.763 615.624 460.367 615.695C459.574 615.829 458.785 615.964 458 616.098C457.218 616.249 456.44 616.4 455.667 616.55C455.279 616.621 454.897 616.712 454.513 616.794C454.131 616.877 453.748 616.961 453.368 617.044C450.327 617.727 447.382 618.513 444.545 619.373C441.712 620.248 438.99 621.201 436.386 622.2C435.738 622.459 435.096 622.714 434.458 622.968C434.299 623.032 434.141 623.095 433.982 623.158C433.825 623.225 433.668 623.292 433.512 623.358C433.198 623.491 432.888 623.623 432.578 623.755C431.334 624.271 430.135 624.833 428.955 625.367C424.258 627.565 420.079 629.878 416.443 632.11C412.806 634.345 409.716 636.504 407.155 638.406C406.849 638.644 406.539 638.876 406.235 639.117C405.934 639.359 405.633 639.602 405.332 639.844C405.031 640.087 404.731 640.329 404.43 640.571C404.28 640.693 404.128 640.811 403.981 640.936L403.539 641.31C398.122 645.689 392.823 650.834 388.02 656.541C383.214 662.242 378.923 668.51 375.386 674.993C371.842 681.473 369.056 688.161 367.052 694.637C365.045 701.114 363.793 707.368 363.185 713.022L363.095 713.997C363.067 714.321 363.049 714.647 363.025 714.972C362.982 715.623 362.934 716.274 362.899 716.924C362.871 717.576 362.844 718.226 362.817 718.879L362.797 719.367L362.789 719.856L362.773 720.834C362.741 722.135 362.772 723.439 362.786 724.739C362.834 726.04 362.868 727.337 362.961 728.632C363.029 729.928 363.157 731.218 363.269 732.506C363.417 733.792 363.544 735.076 363.736 736.351C363.901 737.629 364.121 738.897 364.329 740.162C364.444 740.794 364.567 741.423 364.686 742.052C364.748 742.366 364.803 742.68 364.871 742.993L365.073 743.93C364.969 739.135 365.278 734.702 365.77 730.9L365.768 731.865L365.768 732.348L365.778 732.83C365.793 733.472 365.807 734.112 365.824 734.749C365.846 735.386 365.882 736.018 365.912 736.646C365.928 736.961 365.941 737.274 365.961 737.584C365.985 737.895 366.008 738.204 366.031 738.513C366.199 740.977 366.492 743.328 366.815 745.468C367.485 749.749 368.399 753.168 369.13 754.988C369.338 755.632 369.542 756.242 369.736 756.821C369.925 757.401 370.128 757.942 370.321 758.455C370.513 758.968 370.696 759.451 370.873 759.903C371.06 760.352 371.238 760.773 371.409 761.166C371.58 761.558 371.741 761.924 371.897 762.262C372.06 762.598 372.214 762.907 372.359 763.192C372.652 763.76 372.907 764.231 373.14 764.607C374.096 766.103 374.537 766.163 374.685 765.368C374.761 764.969 374.753 764.36 374.719 763.598C374.705 763.217 374.68 762.799 374.647 762.353C374.63 762.131 374.612 761.902 374.593 761.665C374.573 761.43 374.552 761.189 374.538 760.94C374.504 760.447 374.468 759.931 374.43 759.405C374.412 759.142 374.39 758.877 374.375 758.609C374.362 758.341 374.349 758.071 374.337 757.8C374.312 757.259 374.289 756.716 374.27 756.179C374.262 755.64 374.261 755.106 374.265 754.59C374.231 754.228 374.213 753.918 374.208 753.65C374.209 753.382 374.222 753.156 374.245 752.967C374.292 752.59 374.379 752.36 374.49 752.217C374.713 751.932 375.034 752.001 375.333 751.971C375.633 751.941 375.91 751.812 376.046 751.148C376.081 750.982 376.103 750.784 376.123 750.543C376.144 750.303 376.154 750.021 376.155 749.693C376.156 749.037 376.101 748.195 376.034 747.1C376.101 747.485 376.166 747.858 376.229 748.22C376.301 748.58 376.37 748.93 376.438 749.27C376.506 749.612 376.572 749.943 376.637 750.268C376.7 750.593 376.778 750.906 376.845 751.216C376.988 751.834 377.113 752.431 377.256 753.012C377.402 753.592 377.545 754.16 377.688 754.728C377.757 755.013 377.836 755.295 377.916 755.578C377.995 755.861 378.076 756.146 378.155 756.434C378.236 756.722 378.317 757.014 378.4 757.309C378.49 757.602 378.581 757.899 378.674 758.203C379.037 759.42 379.468 760.718 379.983 762.195C380.052 762.216 380.082 762.165 380.082 762.053C380.081 761.939 380.05 761.765 379.999 761.534C379.895 761.073 379.692 760.402 379.427 759.597C379.3 759.193 379.163 758.753 379.018 758.289C378.874 757.824 378.706 757.341 378.561 756.834C378.41 756.328 378.255 755.81 378.098 755.287C378.016 755.027 377.947 754.761 377.875 754.497C377.803 754.233 377.731 753.968 377.661 753.706C377.365 752.66 377.136 751.625 376.926 750.705C376.872 750.475 376.829 750.25 376.789 750.033C376.749 749.816 376.712 749.607 376.675 749.409C376.606 749.011 376.549 748.651 376.509 748.341C376.366 747.09 376.483 746.627 377.027 747.608C377.416 750.578 378.202 753.652 379.19 756.673C380.178 759.697 381.367 762.668 382.524 765.516C382.563 765.207 382.476 764.666 382.295 763.957C382.248 763.781 382.198 763.593 382.146 763.394C382.094 763.195 382.038 762.985 381.977 762.769C381.856 762.333 381.716 761.864 381.563 761.367C380.978 759.372 380.239 756.928 379.641 754.54C379.053 752.15 378.581 749.828 378.368 748.143C378.305 747.724 378.273 747.341 378.252 747.008C378.229 746.677 378.221 746.394 378.229 746.17C378.246 745.722 378.326 745.506 378.493 745.591C378.6 745.988 378.702 746.554 378.803 747.243C378.849 747.588 378.915 747.959 378.974 748.358C379.032 748.757 379.093 749.18 379.156 749.621C379.218 750.063 379.3 750.519 379.373 750.991C379.41 751.228 379.448 751.467 379.487 751.709C379.524 751.951 379.563 752.196 379.611 752.439C379.794 753.417 379.968 754.432 380.197 755.414C380.308 755.905 380.41 756.397 380.531 756.872C380.654 757.346 380.777 757.81 380.901 758.258C380.964 758.481 381.025 758.702 381.086 758.917C381.155 759.13 381.222 759.337 381.288 759.541C381.421 759.947 381.555 760.33 381.686 760.686C381.815 761.043 381.954 761.366 382.091 761.655C382.226 761.945 382.359 762.2 382.488 762.416C382.748 762.847 382.986 763.12 383.215 763.183C383.304 763.209 383.238 762.873 383.079 762.309C382.999 762.028 382.894 761.689 382.772 761.311C382.713 761.122 382.642 760.924 382.579 760.716C382.514 760.508 382.447 760.291 382.379 760.068C382.237 759.625 382.088 759.156 381.936 758.681C381.793 758.204 381.647 757.719 381.504 757.245C381.432 757.008 381.361 756.774 381.292 756.545C381.22 756.316 381.164 756.088 381.101 755.869C380.979 755.431 380.864 755.021 380.763 754.656C380.939 755.211 381.111 755.758 381.283 756.297C381.464 756.831 381.651 757.355 381.832 757.87C381.923 758.128 382.01 758.384 382.104 758.635C382.2 758.885 382.296 759.133 382.391 759.379C382.582 759.87 382.764 760.353 382.956 760.82C383.154 761.285 383.348 761.74 383.538 762.186C383.634 762.408 383.728 762.627 383.821 762.844C383.921 763.059 384.02 763.271 384.117 763.479C384.314 763.895 384.505 764.302 384.691 764.697C384.878 765.092 385.08 765.465 385.266 765.832C385.456 766.197 385.641 766.55 385.819 766.892C386.005 767.229 386.191 767.552 386.369 767.862C386.55 768.171 386.723 768.469 386.889 768.754C387.052 769.04 387.231 769.302 387.391 769.555C387.718 770.06 388.019 770.509 388.294 770.899C388.581 771.283 388.839 771.608 389.065 771.872C389.52 772.397 389.849 772.677 390.048 772.676C390.146 772.676 390.208 772.607 390.232 772.467C390.258 772.327 390.248 772.113 390.199 771.823C390.15 771.534 390.063 771.169 389.935 770.726C389.873 770.504 389.794 770.265 389.716 770C389.638 769.735 389.55 769.45 389.453 769.143C389.355 768.837 389.248 768.511 389.129 768.163C389.008 767.817 388.898 767.439 388.766 767.045C388.637 766.65 388.498 766.233 388.349 765.794C388.21 765.351 388.062 764.884 387.906 764.393C389.001 767.009 390.349 770.167 391.955 773.254C393.553 776.342 395.41 779.353 397.284 781.72C397.288 781.709 397.278 781.684 397.277 781.668C397.064 781.359 396.834 781.018 396.592 780.657C396.472 780.476 396.347 780.289 396.22 780.099C396.092 779.908 395.963 779.713 395.84 779.509C395.341 778.697 394.793 777.842 394.299 776.961C394.049 776.524 393.791 776.092 393.552 775.664C393.315 775.234 393.084 774.813 392.862 774.409C392.749 774.208 392.64 774.011 392.533 773.819C392.431 773.625 392.331 773.437 392.235 773.255C392.041 772.891 391.859 772.554 391.691 772.252C393.322 775.234 395.135 778.132 397.109 780.912C396.969 780.351 396.778 779.743 396.585 779.1C396.269 778.549 395.951 778.001 395.629 777.453C395.317 776.9 395.003 776.346 394.689 775.787C394.609 775.648 394.529 775.51 394.45 775.371C394.37 775.231 394.297 775.089 394.217 774.948C394.062 774.667 393.905 774.385 393.749 774.101C393.591 773.82 393.431 773.537 393.27 773.253C393.114 772.967 392.957 772.68 392.8 772.391C393.33 773.376 393.916 774.328 394.481 775.296C395.081 776.242 395.661 777.203 396.296 778.134C396.158 777.721 396.017 777.293 395.871 776.85C395.73 776.406 395.581 775.951 395.424 775.488C395.345 775.257 395.264 775.023 395.183 774.785C395.106 774.547 395.027 774.305 394.948 774.06C394.788 773.572 394.618 773.077 394.447 772.572C392.893 768.916 391.74 765.213 390.902 761.93C390.058 758.645 389.494 755.793 388.903 753.8C386.65 745.706 385.633 737.241 385.87 728.76C386.104 720.28 387.591 711.789 390.254 703.646C392.914 695.502 396.75 687.71 401.6 680.591C406.446 673.471 412.307 667.027 418.946 661.48Z" fill="#C68997"/>
</g>
<defs>
<clipPath id="clip0">
<rect width="630" height="913" fill="white"/>
</clipPath>
</defs>
</svg>
