<?xml version="1.0" encoding="utf-8"?>
<!-- Generator: Adobe Illustrator 19.2.1, SVG Export Plug-In . SVG Version: 6.00 Build 0)  -->
<svg version="1.1" id="Слой_1" xmlns="http://www.w3.org/2000/svg" xmlns:xlink="http://www.w3.org/1999/xlink" x="0px" y="0px"
	 viewBox="0 0 1200 260" style="enable-background:new 0 0 1200 260;" xml:space="preserve">
<style type="text/css">
	.st0{fill:#EB9D22;}
	.st1{fill:#485EAB;}
	.st2{fill:#FFFFFF;}
</style>
<g>
	<g>
		<g>
			<g>
				<path class="st0" d="M212.8,5.5l-10.1,0.7L88.9,29.1c-12.3,0.8-19.2,8.1-20.1,16.2l0,0v14.1l14.6,2.9v-19l119.2-17.2v117.7
					l-119.2-1.6v-35L68.8,105v37c0.7,8.8,10.5,15.5,22.8,16.3l12.7,0.8L94,183.8l53.4-21.9l65.4,4c0.8,0.1,1.6,0.1,2.5,0.1
					c14.6,0,26.1-8.5,26.1-19.4V24.9C241.4,13.4,228.5,4.5,212.8,5.5z"/>
			</g>
			<g>
				<path class="st1" d="M179.2,107.4c-0.9-8.2-7.9-15.4-20.1-16.2L45.4,68.3l-10.1-0.7C19.5,66.6,6.7,75.5,6.7,87v121.7
					c0,10.9,11.5,19.4,26.1,19.4c0.8,0,1.6,0,2.5-0.1l65.4-4l53.4,21.9l-10.3-24.7l12.7-0.8c12.3-0.8,22.1-7.6,22.8-16.3v-25.5
					l-14.6-1.4v27.1l-119.2,1.6V88.2l119.2,17.2v27.4h14.6L179.2,107.4L179.2,107.4z"/>
			</g>
		</g>
	</g>
	<g>
		<g>
			<path class="st2" d="M354.5,70.7c0,7.2-3.5,14.1-12.1,17.9c10.9,3.3,14.9,14.9,14.9,20.7c0,20.7-15.5,27.3-34.8,27.3
				c-14.7,0-29.3,0-44.1,0V43.8c14.6,0,29.3,0,44.1,0C340.9,43.8,354.5,52,354.5,70.7z M295.8,81.1h26.8c11,0,14.6-4.6,14.6-10
				c0-4.2-3.4-11.4-14.6-11.4h-26.8V81.1z M295.8,120.3h26.8c7.2,0,17.4-2.4,17.4-11.1c0-8.4-10.2-12.7-17.4-12.7h-26.8V120.3z"/>
			<path class="st2" d="M438.9,136.7h-69.5c0-30.9,0-62,0-92.9h69.5v17h-52.1v21.4h50.3v16.3h-50.3v21h52.1V136.7z"/>
			<path class="st2" d="M518.4,119.1h-48.6l-8,17.5h-19l41.7-92.9h19.1l41.7,92.9h-19.1L518.4,119.1z M494.1,63.3l-17.3,39.5h34.5
				L494.1,63.3z"/>
			<path class="st2" d="M562.1,59.7h-29.5V43.8c26.8,0,49.5,0,76.4,0v15.9h-29.5v77H562L562.1,59.7L562.1,59.7z"/>
			<path class="st2" d="M635.5,51.3v19.8h22.3v5.4h-22.3v39.9c0,8.9,1.9,15.1,12.1,15.1c3.2,0,6.8-1.1,10.1-2.7l2.3,5.3
				c-4.1,2-8.2,3.3-12.3,3.3c-13.9,0-18.4-8.2-18.4-21.1V76.5h-13.9v-5.4h13.9V52L635.5,51.3z"/>
			<path class="st2" d="M679,43.8v39.5c5.3-9.4,14.5-13,23.6-13.1c18.3,0,27.5,11.8,27.5,28.9v37.6h-6.4V99.1
				c0-13.5-6.4-22.7-21.1-22.7c-13.8,0-23.4,10.6-23.4,24.3v36h-6.5V43.8H679L679,43.8z"/>
			<path class="st2" d="M743.3,103.9c0-19.6,14.9-33.8,33.3-33.8S811.5,81.4,809,107h-59c1.3,15.4,13.1,24.3,26.7,24.3
				c8.6,0,18.7-3.4,23.6-10l4.6,3.7c-6.4,8.4-17.8,12.6-28.3,12.6C758.2,137.6,743.3,124.7,743.3,103.9z M803.2,101.2
				C803,85,792.4,76,776.6,76c-13.5,0-25.2,9.2-26.7,25.2H803.2z"/>
			<path class="st2" d="M894.1,66.5c-6.2-6-15.5-9.3-23.6-9.3c-19.9,0-32,15.1-32,34.2c0,15.3,8.9,31,32,31c7.3,0,13.7-1.6,21-7.4
				V98.6h-23.8V82.9h39.8V122c-9.2,10.5-20.7,16.7-37,16.7c-34.9,0-49.1-23-49.1-47.4c0-26.1,16.3-50.3,49.1-50.3
				c12.5,0,24.9,4.8,34.5,14.2L894.1,66.5z"/>
			<path class="st2" d="M1002.8,69.4l-30.3,40.3H969l-29.6-40.5v67.5h-17.5V43.9h20.2l29.1,39.9l29.1-39.9h20v92.9h-17.5V69.4z"/>
			<path class="st2" d="M1102.7,119.1h-48.6l-8,17.5h-19l41.7-92.9h19.1l41.7,92.9h-19.1L1102.7,119.1z M1078.4,63.3l-17.2,39.5
				h34.5L1078.4,63.3z"/>
			<path class="st2" d="M1146.3,59.7h-29.5V43.8c26.8,0,49.5,0,76.4,0v15.9h-29.5v77h-17.5L1146.3,59.7L1146.3,59.7z"/>
		</g>
		<g>
			<path class="st2" d="M295.4,166.2h-16.8V163h37.3v3.2h-16.8v43.3h-3.6L295.4,166.2L295.4,166.2z"/>
			<path class="st2" d="M331.7,162.9v19.8c2.7-4.7,7.3-6.5,11.8-6.6c9.2,0,13.8,5.9,13.8,14.5v18.8h-3.2v-18.8
				c0-6.8-3.2-11.4-10.6-11.4c-6.9,0-11.7,5.3-11.7,12.2v18h-3.3v-46.6h3.2V162.9z"/>
			<path class="st2" d="M370.7,193c0-9.8,7.5-17,16.7-17s17.5,5.7,16.2,18.5H374c0.7,7.7,6.6,12.2,13.4,12.2c4.3,0,9.4-1.7,11.8-5
				l2.3,1.9c-3.2,4.2-8.9,6.3-14.2,6.3C378.1,209.9,370.7,203.5,370.7,193z M400.7,191.7c-0.1-8.1-5.4-12.6-13.3-12.6
				c-6.8,0-12.6,4.6-13.4,12.6H400.7z"/>
			<path class="st2" d="M484.9,168.1l-17.8,27.3h-1.2l-18-27.3v41.4h-3.6v-46.6c1.7,0,2.5,0,4.3,0l17.8,27.1l17.6-27.1h4.4v46.6
				h-3.5L484.9,168.1L484.9,168.1z"/>
			<path class="st2" d="M539.8,175.6c0,4.8-2.9,8.5-7.6,10c5.9,1.6,9.2,6.3,9.2,11.7c0,9.6-8.9,12.2-16.9,12.2c-6.8,0-12.3,0-19.1,0
				v-46.6c6.7,0,12.3,0,19.1,0C532.4,162.9,539.8,166.8,539.8,175.6z M509,184h16c5.6,0,11.4-1.7,11.4-8.4c0-6.8-6.1-9.6-11.9-9.6
				H509V184z M509,206h15.5c5.9,0,13.4-1.4,13.4-8.8c-0.1-7.3-6.7-9.8-12.9-9.8c-5.6,0-10.4,0-16,0V206L509,206z"/>
			<path class="st2" d="M593.7,209.5l-5.1-11.4h-27.8l-5.1,11.4h-3.9l20.9-46.6h3.9l20.9,46.6H593.7z M587.2,194.7l-12.5-28.3
				l-12.5,28.3H587.2z"/>
			<path class="st2" d="M664.6,171.9c-3.4-5.5-8.8-6.3-14.1-6.3c-5.5,0-14.1,2-14.1,9.4c0,5.9,6.4,7.3,14.2,8.8
				c9,1.7,18.3,3.3,18.3,13.4c-0.1,10.5-10.6,13-18.4,13c-7.3,0-15.5-3-19.1-10.1l3.2-1.6c2.9,5.7,10.2,8.5,15.9,8.5
				s14.8-1.6,14.8-9.8c0.1-7-7.7-8.5-15.3-10c-8.5-1.7-17.2-3.4-17.2-12c-0.2-9.8,10-12.9,17.7-12.9c6.7,0,12.4,1.1,17,7.9
				L664.6,171.9z"/>
			<path class="st2" d="M682.4,193.1c0-10.4,7.5-17.1,16.7-17.1s16.7,6.7,16.7,17.1c0,10.4-7.5,16.8-16.7,16.8
				C689.8,209.9,682.4,203.6,682.4,193.1z M712.6,193.1c0-8.5-6.1-14-13.5-14c-7.5,0-13.5,5.5-13.5,14s6.1,13.6,13.5,13.6
				C706.5,206.8,712.6,201.6,712.6,193.1z"/>
			<path class="st2" d="M756.9,204.9c-3.3,3.3-7.7,4.9-12,4.9c-9.2,0-16.9-6.4-16.9-16.8c0-10.4,7.4-16.8,16.9-16.8
				c4.3,0,8.6,1.7,12,4.9l-2.1,2.1c-2.7-2.7-6.3-3.9-9.8-3.9c-7.5,0-13.7,4.9-13.7,13.7c0,8.9,6.3,13.7,13.7,13.7
				c3.5,0,7.1-1.4,9.8-4.1L756.9,204.9z"/>
			<path class="st2" d="M774.5,165.9c0,3.5-5.3,3.5-5.3,0C769.3,162.4,774.5,162.4,774.5,165.9z M770.2,176.5v33h3.3v-33H770.2
				L770.2,176.5z"/>
			<path class="st2" d="M821.1,176.6c0,11,0,21.9,0,32.9h-3.3v-7c-3.2,5.1-8.1,7.5-13.4,7.5c-9.2,0-16.7-6.9-16.7-17
				c0-10,7.5-16.8,16.7-16.8c5.3,0,10.7,2.5,13.4,7.6v-7.2H821.1L821.1,176.6z M790.9,193c0,8.3,6,13.8,13.4,13.8
				c18.3,0,18.3-27.5,0-27.5C796.9,179.3,790.9,184.8,790.9,193z"/>
			<path class="st2" d="M839.8,162.9v46.6h-3.3v-46.6H839.8z"/>
			<path class="st2" d="M882.7,162.9l31.3,38.5v-38.5h3.5v46.6h-1.4L884.8,171v38.5h-3.6v-46.6H882.7L882.7,162.9z"/>
			<path class="st2" d="M932.2,193c0-9.8,7.5-17,16.7-17c9.3,0,17.5,5.7,16.2,18.5h-29.6c0.7,7.7,6.6,12.2,13.4,12.2
				c4.3,0,9.4-1.7,11.8-5l2.3,1.9c-3.2,4.2-8.9,6.3-14.2,6.3C939.6,209.9,932.2,203.5,932.2,193z M962.2,191.7
				c-0.1-8.1-5.4-12.6-13.3-12.6c-6.8,0-12.6,4.6-13.4,12.6H962.2z"/>
			<path class="st2" d="M986.3,166.7v9.9h11.2v2.7h-11.2v20c0,4.5,0.9,7.6,6.1,7.6c1.6,0,3.4-0.5,5.1-1.3l1.1,2.7
				c-2.1,1-4.1,1.7-6.2,1.7c-7,0-9.2-4.1-9.2-10.6v-20h-7v-2.7h7V167L986.3,166.7z"/>
			<path class="st2" d="M1045.6,209.5h-3.6l-5.3-14.4l-4-12.8l-4.1,12.8l-5.3,14.3h-3.6l-11.7-32.9h3.6l9.9,29.1l10-29.1h2.3
				l10,29.1l9.8-29.1h3.6L1045.6,209.5z"/>
			<path class="st2" d="M1067.7,193.1c0-10.4,7.5-17.1,16.7-17.1s16.7,6.7,16.7,17.1c0,10.4-7.5,16.8-16.7,16.8
				S1067.7,203.6,1067.7,193.1z M1097.9,193.1c0-8.5-6.1-14-13.5-14s-13.5,5.5-13.5,14s6.1,13.6,13.5,13.6
				S1097.9,201.6,1097.9,193.1z"/>
			<path class="st2" d="M1118.3,176.6l0.1,5.9c2.1-4.5,6.7-6.2,10.9-6.2c2.5-0.1,4.9,0.6,7.1,1.9l-1.5,2.7c-1.7-1.1-3.7-1.5-5.6-1.5
				c-6.1,0.1-10.8,5-10.8,11v19.2h-3.3v-32.9L1118.3,176.6L1118.3,176.6z"/>
			<path class="st2" d="M1151.2,162.9V191l15.5-14.4h4.3v0.1l-16.6,15.4l18.6,17.2v0.2h-4.1l-17.6-16.1v16.1h-3.2v-46.6H1151.2z"/>
		</g>
	</g>
</g>
</svg>
