<svg width="134px" height="26px" viewBox="0 0 134 26" version="1.1" xmlns="http://www.w3.org/2000/svg" xmlns:xlink="http://www.w3.org/1999/xlink">
    <title>CC743CEF-E200-4EE0-8E89-E8342C021F2C</title>
    <g id="New-Style" stroke="none" stroke-width="1" fill="none" fill-rule="evenodd">
        <g id="Assets" transform="translate(-209.000000, -128.000000)" fill-rule="nonzero">
            <g id="CC-Logo-Full-Horizontal" transform="translate(209.000000, 128.000000)">
                <g id="Group-4" transform="translate(53.000000, 7.000000)" fill="#ffffff">
                    <path d="M1.50141162,18.003948 C0.481894122,18.003948 0,17.5220538 0,16.5025363 L0,12.0015797 C0,10.9853404 0.481894122,10.5034463 1.50141162,10.5034463 L3.7338599,10.5034463 C4.7500992,10.5034463 5.23199332,10.9853404 5.23199332,12.0015797 L5.23199332,12.8178493 L4.45834017,12.8178493 L4.45834017,11.9819105 C4.45834017,11.424618 4.24525774,11.2115356 3.68796522,11.2115356 L1.5440281,11.2115356 C0.986735583,11.2115356 0.773653148,11.424618 0.773653148,11.9819105 L0.773653148,16.5254837 C0.773653148,17.0827762 0.986735583,17.2958586 1.5440281,17.2958586 L3.68796522,17.2958586 C4.24525774,17.2958586 4.45834017,17.0827762 4.45834017,16.5254837 L4.45834017,15.6829885 L5.22871513,15.6829885 L5.22871513,16.49598 C5.22871513,17.5154975 4.74682101,17.9973916 3.7305817,17.9973916 L1.50141162,18.003948 Z" id="Path"></path>
                    <path d="M8.08074157,18.003948 C7.06122407,18.003948 6.57932995,17.5220538 6.57932995,16.5025363 L6.57932995,12.0015797 C6.57932995,10.9853404 7.06122407,10.5034463 8.08074157,10.5034463 L10.4475957,10.5034463 C11.4671132,10.5034463 11.9490073,10.9853404 11.9490073,12.0015797 L11.9490073,16.5025363 C11.9490073,17.5220538 11.4671132,18.003948 10.4475957,18.003948 L8.08074157,18.003948 Z M7.33987033,16.5254837 C7.33987033,17.0827762 7.55623096,17.2958586 8.11352348,17.2958586 L10.4082574,17.2958586 C10.9655499,17.2958586 11.1786323,17.0827762 11.1786323,16.5254837 L11.1786323,11.9819105 C11.1786323,11.424618 10.9655499,11.2115356 10.4082574,11.2115356 L8.11352348,11.2115356 C7.55623096,11.2115356 7.33987033,11.424618 7.33987033,11.9819105 L7.33987033,16.5254837 Z" id="Shape"></path>
                    <polygon id="Path" points="19.6396441 11.1656409 19.6396441 18.003948 18.9020511 18.003948 14.925605 11.5426329 14.925605 17.3384751 16.125423 17.3384751 16.125423 17.9941134 13.1488253 17.9941134 13.1488253 17.3384751 14.2240721 17.3384751 14.2240721 11.1656409 13.1521035 11.1656409 13.1521035 10.5100026 15.07968 10.5100026 18.9381112 16.7680698 18.9381112 11.1656409 17.7382931 11.1656409 17.7382931 10.5100026 20.6526052 10.5100026 20.6526052 11.1656409"></polygon>
                    <polygon id="Path" points="27.3368373 12.4310227 26.6156352 12.4310227 26.6156352 11.1885882 23.4325114 11.1885882 23.4325114 13.909487 26.5730187 13.909487 26.5730187 14.594629 23.4325114 14.594629 23.4325114 17.3384751 24.6782241 17.3384751 24.6782241 17.9941134 21.5901679 17.9941134 21.5901679 17.3384751 22.6621365 17.3384751 22.6621365 11.1656409 21.5901679 11.1656409 21.5901679 10.5100026 27.3368373 10.5100026"></polygon>
                    <polygon id="Path" points="30.3036004 17.3384751 31.4608019 17.3384751 31.4608019 17.9941134 28.3727457 17.9941134 28.3727457 17.3384751 29.5299473 17.3384751 29.5299473 11.1656409 28.3727457 11.1656409 28.3727457 10.5100026 31.4608019 10.5100026 31.4608019 11.1656409 30.3036004 11.1656409"></polygon>
                    <path d="M33.5654008,17.3384751 L33.5654008,11.1656409 L32.4934322,11.1656409 L32.4934322,10.5100026 L37.2402532,10.5100026 C38.2597707,10.5100026 38.7416648,10.9918968 38.7416648,12.0081361 L38.7416648,16.5025363 C38.7416648,17.5220538 38.2597707,18.003948 37.2402532,18.003948 L32.4868758,18.003948 L32.4868758,17.3483097 L33.5654008,17.3384751 Z M37.1976367,17.2958586 C37.7549293,17.2958586 37.9680117,17.0827762 37.9680117,16.5254837 L37.9680117,11.9819105 C37.9680117,11.424618 37.7549293,11.2115356 37.1976367,11.2115356 L34.3357757,11.2115356 L34.3357757,17.2958586 L37.1976367,17.2958586 Z" id="Shape"></path>
                    <polygon id="Path" points="44.9603937 11.1885882 41.77727 11.1885882 41.77727 13.8111413 44.9177773 13.8111413 44.9177773 14.4962833 41.77727 14.4962833 41.77727 17.3220842 44.9603937 17.3220842 44.9603937 16.0796497 45.6947086 16.0796497 45.6947086 18.0105043 39.9349265 18.0105043 39.9349265 17.3548661 41.006895 17.3548661 41.006895 11.1656409 39.9349265 11.1656409 39.9349265 10.5100026 45.6947086 10.5100026 45.6947086 12.4375791 44.9669501 12.4375791"></polygon>
                    <polygon id="Path" points="53.3919018 11.1656409 53.3919018 18.003948 52.6543087 18.003948 48.6778627 11.5426329 48.6778627 17.3384751 49.8776807 17.3384751 49.8776807 17.9941134 46.8978048 17.9941134 46.8978048 17.3384751 47.9697734 17.3384751 47.9697734 11.1656409 46.8978048 11.1656409 46.8978048 10.5100026 48.8286595 10.5100026 52.6838125 16.7680698 52.6838125 11.1656409 51.4839944 11.1656409 51.4839944 10.5100026 54.3983065 10.5100026 54.3983065 11.1656409"></polygon>
                    <polygon id="Path" points="61.4923125 12.6441052 60.7743886 12.6441052 60.7743886 11.2115356 58.7910829 11.2115356 58.7910829 17.3384751 60.0335174 17.3384751 60.0335174 17.9941134 56.7782734 17.9941134 56.7782734 17.3384751 58.0207079 17.3384751 58.0207079 11.2115356 56.0537931 11.2115356 56.0537931 12.6441052 55.2998091 12.6441052 55.2998091 10.5034463 61.4923125 10.5034463"></polygon>
                    <polygon id="Path" points="64.4066246 17.3384751 65.5638261 17.3384751 65.5638261 17.9941134 62.4790481 17.9941134 62.4790481 17.3384751 63.6362496 17.3384751 63.6362496 11.1656409 62.4790481 11.1656409 62.4790481 10.5100026 65.5638261 10.5100026 65.5638261 11.1656409 64.4066246 11.1656409"></polygon>
                    <path d="M74.1559655,18.003948 L71.3498337,18.003948 L71.3498337,17.3483097 L72.398855,17.3483097 L71.8415624,15.8042816 L68.6420477,15.8042816 L68.0847552,17.3483097 L69.1141073,17.3483097 L69.1141073,18.003948 L66.3473138,18.003948 L66.3473138,17.3483097 L67.3307712,17.3483097 L69.589445,11.1754755 L68.6912206,11.1754755 L68.6912206,10.5198372 L70.7138646,10.5198372 L73.221681,17.3548661 L74.1854692,17.3548661 L74.1559655,18.003948 Z M70.2221359,11.3066031 L68.8616865,15.0896359 L71.5924199,15.0896359 L70.2221359,11.3066031 Z" id="Shape"></path>
                    <polygon id="Path" points="74.8870022 18.003948 74.8870022 17.3483097 75.9556925 17.3483097 75.9556925 11.1656409 74.8870022 11.1656409 74.8870022 10.5100026 78.0143967 10.5100026 78.0143967 11.1656409 76.7293457 11.1656409 76.7293457 17.2958586 79.8567402 17.2958586 79.8567402 15.8600109 80.5844986 15.8600109 80.5844986 18.003948"></polygon>
                    <path d="M1.47846428,7.5005017 C0.495006887,7.5005017 0,7.01860758 0,6.02203743 L0,1.47846428 C0,0.472059548 0.495006887,1.8189894e-13 1.49157704,1.8189894e-13 L4.27476146,1.8189894e-13 C5.28444438,1.8189894e-13 5.74339117,0.472059548 5.74339117,1.47846428 L5.74339117,2.7897408 L3.96661148,2.7897408 L3.96661148,1.74727597 C3.96661148,1.58664459 3.92399499,1.5440281 3.76336362,1.5440281 L1.98330574,1.5440281 C1.83250894,1.5440281 1.78005788,1.58664459 1.78005788,1.74727597 L1.78005788,5.75650393 C1.78005788,5.90402254 1.83250894,5.95975179 1.98330574,5.95975179 L3.76336362,5.95975179 C3.92399499,5.95975179 3.96661148,5.90402254 3.96661148,5.75650393 L3.96661148,4.72059548 L5.74339117,4.72059548 L5.74339117,6.031872 C5.74339117,7.01532939 5.27133162,7.51033628 4.26492689,7.51033628 L1.47846428,7.5005017 Z" id="Path"></path>
                    <path d="M8.15613997,7.5005017 C7.17268257,7.5005017 6.67767569,7.01860758 6.67767569,6.02203743 L6.67767569,1.47846428 C6.67767569,0.472059548 7.15956981,1.07291953e-13 8.15613997,1.07291953e-13 L11.1229031,1.07291953e-13 C12.1293078,1.07291953e-13 12.6013674,0.472059548 12.6013674,1.47846428 L12.6013674,6.031872 C12.6013674,7.01532939 12.1293078,7.51033628 11.1229031,7.51033628 L8.15613997,7.5005017 Z M8.45445537,5.75650393 C8.45445537,5.90402254 8.50690643,5.95975179 8.65770323,5.95975179 L10.624618,5.95975179 C10.7852494,5.95975179 10.8278659,5.90402254 10.8278659,5.75650393 L10.8278659,1.74727597 C10.8278659,1.58664459 10.7852494,1.5440281 10.624618,1.5440281 L8.65114685,1.5440281 C8.50035005,1.5440281 8.44789899,1.58664459 8.44789899,1.74727597 L8.45445537,5.75650393 Z" id="Shape"></path>
                    <polygon id="Path" points="13.4274716 7.5005017 13.4274716 6.1072704 14.3486433 6.1072704 14.3486433 1.3932313 13.4274716 1.3932313 13.4274716 1.15818466e-13 17.1547751 1.15818466e-13 17.1547751 1.3932313 16.125423 1.3932313 16.125423 6.031872 18.0005485 6.031872 18.0005485 4.54357315 19.5019601 4.54357315 19.5019601 7.49394532"></polygon>
                    <polygon id="Path" points="20.1444856 7.5005017 20.1444856 6.1072704 21.0656573 6.1072704 21.0656573 1.3932313 20.1444856 1.3932313 20.1444856 1.15818466e-13 23.8717891 1.15818466e-13 23.8717891 1.3932313 22.8457152 1.3932313 22.8457152 6.031872 24.7142842 6.031872 24.7142842 4.54357315 26.2124177 4.54357315 26.2124177 7.49394532"></polygon>
                    <polygon id="Path" points="33.0244992 2.37013231 31.5460349 2.37013231 31.5460349 1.4686297 29.5791201 1.4686297 29.5791201 2.94709398 32.1262748 2.94709398 32.1262748 4.43867103 29.5791201 4.43867103 29.5791201 6.031872 31.5460349 6.031872 31.5460349 5.13036939 33.0244992 5.13036939 33.0244992 7.49722351 26.8844469 7.49722351 26.8844469 6.10399221 27.8056186 6.10399221 27.8056186 1.3932313 26.8844469 1.3932313 26.8844469 1.16529009e-13 33.0244992 1.16529009e-13"></polygon>
                    <path d="M38.2105978,1.73744139 C38.2105978,1.57681002 38.1548686,1.53419353 38.00735,1.53419353 L36.0994426,1.53419353 C35.9486458,1.53419353 35.8961948,1.57681002 35.8961948,1.73744139 L35.8961948,5.7663385 C35.8961948,5.9171353 35.9486458,5.96958637 36.0994426,5.96958637 L38.00735,5.96958637 C38.1548686,5.96958637 38.2105978,5.9171353 38.2105978,5.7663385 L38.2105978,4.68453537 L36.8698176,4.68453537 L36.8698176,3.21590567 L39.977543,3.21590567 L39.977543,6.031872 C39.977543,7.01532939 39.4956488,7.51033628 38.4990787,7.51033628 L35.5946012,7.51033628 C34.6111438,7.51033628 34.1161369,7.02844216 34.1161369,6.031872 L34.1161369,1.47846428 C34.1161369,0.472059548 34.598031,1.07291953e-13 35.5946012,1.07291953e-13 L38.4990787,1.07291953e-13 C39.4825361,1.07291953e-13 39.977543,0.472059548 39.977543,1.47846428 L39.977543,2.46192167 L38.2105978,2.46192167 L38.2105978,1.73744139 Z" id="Path"></path>
                    <polygon id="Path" points="46.986316 2.37013231 45.5078517 2.37013231 45.5078517 1.4686297 43.5409369 1.4686297 43.5409369 2.94709398 46.0913697 2.94709398 46.0913697 4.43867103 43.5409369 4.43867103 43.5409369 6.031872 45.5078517 6.031872 45.5078517 5.13036939 46.986316 5.13036939 46.986316 7.49722351 40.8462637 7.49722351 40.8462637 6.10399221 41.760879 6.10399221 41.760879 1.3932313 40.8397073 1.3932313 40.8397073 1.16529009e-13 46.9797596 1.16529009e-13"></polygon>
                </g>
                <g id="Group-6">
                    <path d="M32.1033274,25.2502685 L39.7939642,25.2502685 C43.3081853,25.2502685 44.9735065,23.6265804 44.9735065,20.2002148 L44.9735065,17.4514514 L42.3116152,17.4514514 L42.3116152,20.2641395 C42.3116152,22.1371341 41.5707439,22.8594836 39.6464456,22.8594836 L32.2508461,22.8594836 C30.3298259,22.8594836 29.5889547,22.1371341 29.5889547,20.2641395 L29.5889547,11.1516692 L26.9270634,16.4382444 L26.9270634,20.1906261 C26.9270634,23.6169917 28.5891064,25.2502685 32.1033274,25.2502685 Z" id="Path" fill="#ffffff"></path>
                    <path d="M44.9735065,5.04685747 C44.9735065,1.62368815 43.3081853,-1.38555833e-14 39.7939642,-1.38555833e-14 L35.2044964,-1.38555833e-14 L34.0079566,2.38119621 L39.6464456,2.38119621 C41.5707439,2.38119621 42.3116152,3.10034943 42.3116152,4.97654026 L42.3116152,7.7892284 L44.9735065,7.7892284 L44.9735065,5.04685747 Z" id="Path" fill="#ffffff"></path>
                    <polygon id="Path" fill="#F2A900" points="30.2577057 0.00639247304 17.5350453 25.2630535 19.980576 25.2630535 32.7032365 0.00639247304"></polygon>
                    <path d="M19.8166664,15.8469407 L13.6930051,15.8469407 L13.6930051,19.3819783 C13.6930051,19.8869836 13.5454865,20.0691691 12.9881939,20.0691691 L6.84486344,20.0691691 C6.32690922,20.0691691 6.1433305,19.8869836 6.1433305,19.3819783 L6.1433305,5.88746767 C6.1433305,5.3473037 6.32690922,5.20347306 6.84486344,5.20347306 L12.9881939,5.20347306 C13.5454865,5.20347306 13.6930051,5.3473037 13.6930051,5.88746767 L13.6930051,9.40332785 L19.8363356,9.40332785 L19.8363356,4.98612897 C19.8363356,1.59811826 18.2431346,0 14.7518609,0 L5.14348216,0 C1.70138129,0 5.68434189e-14,1.59811826 5.68434189e-14,4.98612897 L5.68434189e-14,20.283317 C5.68434189e-14,23.6521503 1.66532118,25.2502685 5.10742205,25.2502685 L14.7289135,25.2502685 C14.8502066,25.2502685 14.9649433,25.2502685 15.07968,25.2502685 L19.8166664,15.8469407 Z" id="Path" fill="#ffffff"></path>
                </g>
            </g>
        </g>
    </g>
</svg>
