<svg width="630" height="187" viewBox="0 0 630 187" fill="none" xmlns="http://www.w3.org/2000/svg">
<g clip-path="url(#clip0)">
<rect width="630" height="187" fill="#184954"/>
<path d="M44.2448 159C43.939 156.047 52.9509 153.093 38.9341 151.729C33.4223 151.382 28.0393 151.23 22.7689 151.224C20.1297 151.224 17.5146 151.26 14.9236 151.327C13.6282 151.37 12.3408 151.406 11.0534 151.449C9.7418 151.504 8.43828 151.558 7.13477 151.613C-12.1605 152.107 -31.1984 152.99 -50.6546 153.879C-70.0866 154.768 -89.929 155.651 -110.246 156.144C-130.539 156.631 -151.323 156.722 -171.978 156.022C-172.027 154.433 -172.179 152.843 -172.195 151.254C-175.478 151.351 -178.769 151.449 -182.398 151.558C-183.806 128.911 -185.247 105.764 -186.711 82.2583C-187.459 70.0912 -188.216 57.8327 -188.972 45.4951C-189.696 32.9687 -190.429 20.357 -191.161 7.68447C-190.244 -42.9448 -188.763 -93.3062 -186.631 -143.454C-184.329 -142.151 -182.205 -141.53 -181.368 -146.524C-179.679 -167.375 -181.899 -196.27 -182.559 -226.207C-182.189 -230.634 -181.827 -235.055 -181.465 -239.403C-180.097 -242.807 -177.892 -243.684 -176.532 -244.232C-176.742 -257.763 -177.345 -269.796 -178.021 -280.946C-175.929 -305.336 -173.829 -329.792 -171.673 -354.917L-171.568 -356.099L-171.52 -356.69C-171.512 -356.775 -171.503 -356.915 -171.495 -356.951L-171.471 -357.018L-171.27 -357.542L-170.86 -358.626C-170.586 -359.387 -170.313 -360.155 -170.039 -360.916C-169.492 -362.505 -168.937 -364.204 -168.381 -366.031C-167.271 -369.685 -166.153 -373.832 -165.026 -378.539C-171.705 -380.256 -180.66 -382.004 -192.094 -383.776L-193.172 -383.941L-193.446 -383.983C-193.502 -383.989 -193.51 -383.995 -193.607 -384.002L-193.993 -384.02L-195.53 -384.105C-197.574 -384.215 -199.626 -384.324 -201.669 -384.44C-205.765 -384.659 -209.877 -384.885 -213.989 -385.104C-222.22 -385.548 -230.484 -385.993 -238.779 -386.444C-255.379 -387.333 -272.108 -388.234 -288.965 -389.135C-356.41 -392.74 -425.939 -396.4 -497.318 -400.042C-542.507 -404.438 -587.712 -408.835 -631.259 -410.845C-695.767 -412.672 -778.09 -409.554 -840.988 -409.006C-831.341 -425.862 -984.673 -434.107 -954.073 -451.146C-995.986 -450.781 -1058.95 -450.22 -1062.18 -454.995C-1071.93 -469.287 -1104.19 -485.772 -1215.55 -494.382C-1259.13 -496.392 -1326.06 -490.382 -1341.42 -493.274C-1365.61 -497.854 -1284.92 -503.353 -1309.11 -507.938C-985.236 -513.108 -673.358 -506.909 -347.253 -507.049C-329.937 -505.886 -297.108 -504.82 -253.255 -503.87C-242.296 -503.651 -230.636 -503.42 -218.374 -503.176C-212.242 -503.066 -205.95 -502.957 -199.513 -502.847C-197.904 -502.823 -196.286 -502.792 -194.661 -502.768C-193.438 -502.756 -192.207 -502.744 -190.976 -502.725C-189.407 -502.713 -187.838 -502.701 -186.261 -502.683C-179.96 -502.628 -173.596 -502.579 -167.166 -502.524C-116.168 -502.159 -61.0103 -501.769 -2.7543 -501.355C-3.12443 -462.966 -3.51071 -422.805 -3.91303 -381.42C-4.00154 -372.169 -4.08196 -362.852 -4.17047 -353.468C-4.25093 -347.951 -4.33135 -342.403 -4.41986 -336.819C-4.57274 -325.657 -4.72568 -314.36 -4.87856 -302.985C-5.4579 -257.459 -5.91649 -210.495 -6.2303 -164.372C-6.54411 -118.249 -6.7292 -72.9668 -6.76139 -30.8082C-6.76139 -20.267 -6.76139 -9.92679 -6.76139 0.188111C-6.75334 3.15986 -6.74527 6.10116 -6.73723 9.00593C-6.72918 9.69406 -6.71315 10.37 -6.70511 11.0399C-6.64878 13.7071 -6.55225 16.1795 -6.4235 18.3779C-3.00378 18.2744 0.0458215 18.1343 2.64481 17.9638C3.94833 17.8785 5.13118 17.7872 6.20136 17.6837C6.46689 17.6593 6.72435 17.6289 6.98183 17.6045L7.16689 17.5862L7.26344 17.5741L7.89108 17.5619C8.8647 17.5497 9.83024 17.5314 10.7797 17.5192C14.5937 17.4584 18.2227 17.4035 21.6826 17.3487C27.5243 17.4218 33.3338 17.4888 39.1433 17.5619C144.06 16.6363 271.467 17.9212 360.259 24.3336C400.982 28.2979 442.389 33.1209 483.619 37.7734C464.452 40.5503 446.694 43.3272 431.301 46.0675C473.279 45.7021 515.225 45.3368 531.342 48.3816C620.697 55.5917 570.077 64.0198 535.703 75.4988C510.976 80.5166 544.409 88.22 505.698 93.3414C533.603 93.0978 547.579 92.9761 575.613 92.7264C578.816 97.5007 489.493 90.2905 508.9 98.1096C535.8 96.2827 565.933 99.1997 593.863 98.9561C584.191 105.435 497.064 101.398 501.361 107.762C516.448 109.235 579.886 99.0901 585.285 107.025C586.355 108.62 558.394 108.858 544.409 108.986C630.465 111.422 677.883 118.997 599.334 127.669C626.603 127.431 665.162 124.064 694 125.148C693.968 125.196 693.847 125.227 693.783 125.276C679.388 125.543 654.573 127.188 641.28 127.297C657.614 127.157 674.021 127.011 690.387 126.871C687.812 127.985 684.891 129.088 681.81 130.184C669.587 131.164 657.308 131.95 644.547 132.065C655.393 131.968 666.256 131.877 677.167 131.779C669.024 134.367 659.666 136.87 649.391 139.215C610.655 144.342 573.545 151.857 552.584 152.04C383.336 155.809 213.348 158.47 44.2448 159Z" fill="#9B9B72"/>
</g>
<defs>
<clipPath id="clip0">
<rect width="630" height="187" fill="white"/>
</clipPath>
</defs>
</svg>
