<svg width="630" height="472" viewBox="0 0 630 472" fill="none" xmlns="http://www.w3.org/2000/svg">
<rect width="630" height="472" fill="#C68997"/>
<path d="M127.518 260.436C127.385 262.097 126.721 263.559 125.525 264.821C124.395 266.017 122.967 267.047 121.239 267.911C119.578 268.708 117.784 269.306 115.858 269.704C113.997 270.103 112.303 270.302 110.775 270.302C106.257 270.302 102.204 269.239 98.6163 267.113C95.0285 264.921 91.9722 262.13 89.4475 258.742C86.9227 255.287 84.9295 251.466 83.4678 247.281C82.0725 243.228 81.2753 239.241 81.0759 235.321C81.2088 239.374 81.9729 243.46 83.3681 247.58C84.8298 251.832 86.8231 255.685 89.3478 259.14C91.8725 262.595 94.962 265.419 98.6163 267.612C102.271 269.738 106.39 270.801 110.974 270.801C113.499 270.801 115.957 270.402 118.349 269.605C120.741 268.807 122.967 267.711 125.026 266.316C123.498 268.641 121.472 270.302 118.947 271.299C116.422 272.296 113.831 272.794 111.174 272.794C108.184 272.794 105.426 272.362 102.902 271.498C100.377 270.701 97.9186 269.405 95.5268 267.612L95.1281 266.017C92.4041 264.356 90.0454 262.296 88.0522 259.838C86.1254 257.38 84.5308 254.722 83.2685 251.865C82.0725 249.008 81.1756 246.018 80.5776 242.896C80.0461 239.773 79.7803 236.65 79.7803 233.527C79.7803 230.205 80.0793 226.917 80.6773 223.661C81.3417 220.339 82.2386 217.083 83.3681 213.894C83.1024 213.894 82.9695 213.795 82.9695 213.595C81.5742 216.652 80.5444 219.807 79.88 223.063C79.2156 226.319 78.8834 229.641 78.8834 233.029C78.8834 239.474 80.1458 245.686 82.6705 251.666C85.1953 257.579 88.9492 262.595 93.9322 266.715C91.341 264.721 89.0488 262.429 87.0556 259.838C85.1288 257.247 83.5342 254.489 82.2719 251.566C81.0095 248.576 80.0461 245.487 79.3817 242.298C78.7837 239.108 78.4847 235.886 78.4847 232.631C78.4847 228.245 79.0827 223.794 80.2786 219.276C81.541 214.692 83.4014 210.539 85.8597 206.818C88.3844 203.098 91.5071 200.075 95.2278 197.749C98.9485 195.357 103.3 194.161 108.283 194.161C110.542 194.161 112.668 194.527 114.662 195.258C116.721 195.988 118.648 196.952 120.442 198.148C122.236 199.344 123.897 200.706 125.425 202.234C127.02 203.762 128.515 205.323 129.91 206.918L127.817 208.712C126.887 208.38 125.99 207.881 125.126 207.217C124.329 206.486 123.598 205.755 122.934 205.024L122.336 205.722C123.199 206.719 123.997 207.881 124.727 209.21C125.458 210.473 125.824 211.801 125.824 213.197L124.727 214.991C123.864 214.924 122.767 214.426 121.439 213.496C120.176 212.499 118.748 211.469 117.153 210.406C115.625 209.277 114.031 208.247 112.369 207.317C110.775 206.386 109.214 205.921 107.685 205.921C105.692 205.921 103.898 206.42 102.304 207.416C100.776 208.413 99.3803 209.708 98.118 211.303C96.8556 212.898 95.7593 214.725 94.8292 216.784C93.9654 218.844 93.2346 220.937 92.6366 223.063C92.1051 225.189 91.6732 227.282 91.341 229.342C91.0753 231.335 90.9424 233.096 90.9424 234.624C90.9424 237.215 91.341 240.072 92.1383 243.195C93.002 246.317 94.2312 249.241 95.8258 251.965C97.4868 254.622 99.5132 256.848 101.905 258.642C104.297 260.436 107.021 261.333 110.077 261.333C111.473 261.333 112.901 261.2 114.363 260.934C115.891 260.602 117.253 260.071 118.449 259.34L119.246 260.237C116.721 262.163 113.831 263.127 110.576 263.127C107.386 263.127 104.463 262.363 101.805 260.835C103.068 261.698 104.463 262.329 105.991 262.728C107.652 263.193 109.313 263.426 110.974 263.426C114.031 263.426 116.887 262.562 119.545 260.835L120.442 262.13C121.106 261.399 121.937 260.702 122.934 260.037C123.93 259.306 124.96 258.875 126.023 258.742L127.518 260.436ZM89.4475 240.404C89.7797 244.258 90.9092 247.945 92.8359 251.466C94.7627 254.921 97.2875 257.712 100.41 259.838C97.2875 257.645 94.8292 254.822 93.0353 251.367C91.1749 247.845 89.979 244.191 89.4475 240.404Z" fill="white"/>
<path d="M163.595 264.921C164.991 261.134 165.954 257.047 166.485 252.662C167.017 248.211 167.416 243.759 167.681 239.308C167.681 238.643 167.648 238.012 167.582 237.414C167.582 236.883 167.582 236.384 167.582 235.919C167.382 240.836 166.984 245.753 166.386 250.669C165.854 255.719 164.725 260.369 162.997 264.622C162.732 264.09 162.532 263.625 162.399 263.226C162.266 262.828 162.2 262.363 162.2 261.831C162.2 260.237 162.466 258.576 162.997 256.848C163.529 255.121 163.861 253.327 163.994 251.466L165.389 250.868C165.389 247.613 165.522 244.391 165.788 241.201C166.054 237.946 166.186 234.69 166.186 231.435C166.186 229.774 166.12 228.146 165.987 226.551C165.921 224.957 165.721 223.296 165.389 221.568H164.791C165.19 226.285 165.389 230.803 165.389 235.122C165.389 237.315 165.323 239.407 165.19 241.401C165.057 243.261 164.824 245.155 164.492 247.081C164.692 245.62 164.824 244.224 164.891 242.896C165.024 241.367 165.09 239.74 165.09 238.012C165.09 232.631 164.858 227.182 164.393 221.668C163.994 216.087 163.628 210.373 163.296 204.526V201.736C163.496 200.938 163.595 200.075 163.595 199.144C163.662 198.214 163.761 197.317 163.894 196.454C164.027 195.59 164.26 194.892 164.592 194.361C164.991 193.763 165.622 193.464 166.485 193.464L168.18 193.962L168.778 195.158H169.675C169.94 194.759 170.239 194.56 170.572 194.56C170.97 194.56 171.369 194.726 171.767 195.058C172.166 195.324 172.631 195.457 173.163 195.457C174.159 195.457 174.857 196.155 175.256 197.55C175.654 198.879 175.92 200.573 176.053 202.633C176.186 204.626 176.252 206.852 176.252 209.31C176.252 211.702 176.385 213.961 176.651 216.087C176.85 218.014 177.016 219.974 177.149 221.967C177.348 223.894 177.448 225.854 177.448 227.847C177.448 229.84 177.382 232.165 177.249 234.823C177.116 237.481 176.917 240.238 176.651 243.095C176.452 245.885 176.186 248.676 175.854 251.466C175.521 254.257 175.156 256.748 174.757 258.941C174.359 261.134 173.894 262.927 173.362 264.323C172.831 265.652 172.299 266.316 171.767 266.316C171.635 266.316 171.435 266.249 171.169 266.117C171.635 263.991 172.066 261.864 172.465 259.738C172.93 257.612 173.329 255.386 173.661 253.061C173.196 255.187 172.698 257.38 172.166 259.639C171.701 261.831 171.169 263.891 170.572 265.818C170.306 265.552 169.974 265.419 169.575 265.419C169.442 265.419 169.276 265.585 169.077 265.917C168.944 266.249 168.744 266.648 168.479 267.113C168.213 267.512 167.881 267.877 167.482 268.209C167.083 268.542 166.652 268.708 166.186 268.708C165.721 268.708 165.356 268.608 165.09 268.409C164.824 268.209 164.592 267.977 164.393 267.711C164.26 267.379 164.094 267.047 163.894 266.715C163.761 266.382 163.562 266.083 163.296 265.818L163.595 264.921ZM175.156 236.218C174.757 237.547 174.458 238.776 174.259 239.906C174.126 240.969 174.026 241.999 173.96 242.995C173.96 243.992 173.96 245.022 173.96 246.085C173.96 247.015 173.927 248.045 173.86 249.174C174.126 246.915 174.359 244.856 174.558 242.995C174.824 241.002 175.023 238.743 175.156 236.218ZM164.492 247.48C164.492 247.347 164.492 247.214 164.492 247.081C164.492 247.214 164.492 247.347 164.492 247.48Z" fill="white"/>
<path d="M256.778 238.012C256.778 238.344 256.38 239.574 255.582 241.7C254.785 243.826 253.822 246.317 252.692 249.174C251.629 251.965 250.5 254.855 249.304 257.845C248.108 260.702 247.078 263.127 246.214 265.12L249.005 257.147C246.746 262.595 244.155 268.01 241.231 273.392V273.691C239.836 273.691 238.474 273.658 237.145 273.591C235.883 273.591 234.554 273.492 233.159 273.292C232.76 272.229 232.262 271.066 231.664 269.804C231.132 268.475 230.567 267.146 229.969 265.818C229.438 264.489 228.873 263.193 228.275 261.931C227.744 260.668 227.245 259.506 226.78 258.443L226.382 259.041C224.986 256.184 223.458 253.294 221.797 250.37C220.203 247.447 218.641 244.656 217.113 241.999C215.585 239.275 214.19 236.816 212.927 234.624C211.665 232.365 210.735 230.538 210.137 229.142C208.542 225.687 207.18 222.133 206.051 218.479C204.921 214.824 203.759 211.17 202.563 207.516C203.028 207.25 203.426 207.018 203.759 206.818C204.157 206.619 204.523 206.519 204.855 206.519C205.254 206.519 205.619 206.818 205.951 207.416C206.35 208.014 206.715 208.679 207.047 209.409C207.38 210.14 207.645 210.871 207.845 211.602C208.11 212.333 208.277 212.798 208.343 212.997L209.24 212.399C208.908 211.137 208.642 209.875 208.443 208.612C208.243 207.35 208.144 206.054 208.144 204.725V203.928C208.144 203.463 208.177 203.031 208.243 202.633C208.376 202.167 208.542 201.769 208.742 201.437C208.941 201.104 209.207 200.938 209.539 200.938C210.004 200.938 210.835 201.935 212.03 203.928C213.226 205.921 214.555 208.446 216.017 211.502C217.545 214.559 219.14 217.947 220.801 221.668C222.528 225.322 224.156 228.877 225.684 232.332C227.279 235.72 228.674 238.743 229.87 241.401C231.066 244.058 231.929 245.885 232.461 246.882C233.258 248.477 234.022 250.104 234.753 251.765C235.55 253.36 236.414 254.955 237.344 256.549C240.268 250.104 242.66 243.46 244.52 236.617L250.101 216.087C250.3 215.422 250.599 214.027 250.998 211.901C251.397 209.775 251.862 207.582 252.393 205.323C252.925 202.998 253.489 200.938 254.087 199.144C254.685 197.351 255.283 196.454 255.881 196.454L256.18 196.553C255.117 201.138 254.121 205.689 253.19 210.207C252.26 214.658 251.23 219.143 250.101 223.661C251.363 219.276 252.493 214.858 253.489 210.406C254.486 205.955 255.616 201.536 256.878 197.151L257.775 197.749C257.908 197.284 258.107 196.653 258.373 195.856C258.705 194.992 259.07 194.161 259.469 193.364C259.868 192.5 260.3 191.769 260.765 191.172C261.296 190.574 261.828 190.275 262.359 190.275C262.758 190.275 263.09 190.507 263.356 190.972C263.688 191.437 263.921 191.969 264.054 192.567C264.186 193.165 264.286 193.763 264.353 194.361C264.419 194.959 264.452 195.391 264.452 195.656C264.452 195.789 264.353 196.088 264.153 196.553C264.02 196.952 263.921 197.251 263.854 197.45C262.127 203.164 260.565 208.911 259.17 214.692C257.841 220.472 256.446 226.252 254.984 232.033C253.589 237.746 251.995 243.427 250.201 249.075C248.473 254.589 246.38 260.037 243.922 265.419C246.38 260.17 248.506 254.788 250.3 249.274C252.161 243.626 253.855 237.946 255.383 232.232C256.978 226.452 258.473 220.671 259.868 214.891C261.329 209.111 262.957 203.397 264.751 197.749C264.751 200.34 264.552 202.898 264.153 205.423C263.755 207.948 263.256 210.473 262.658 212.997C262.06 215.522 261.396 218.047 260.665 220.572C259.934 223.03 259.27 225.488 258.672 227.946H257.775C256.247 235.056 254.353 242.032 252.094 248.875C252.692 247.281 253.323 245.686 253.988 244.092C254.652 242.497 255.35 240.936 256.081 239.407L256.778 238.012ZM230.468 271C229.936 269.804 229.338 268.309 228.674 266.515C228.009 264.655 227.411 262.961 226.88 261.433C227.744 262.894 228.508 264.456 229.172 266.117C229.837 267.711 230.268 269.339 230.468 271ZM250.101 223.661C248.772 228.777 247.344 233.86 245.816 238.909C244.686 242.63 243.39 246.317 241.929 249.972C243.457 246.384 244.819 242.696 246.015 238.909C247.609 233.926 248.971 228.843 250.101 223.661ZM242.527 274.189C241.597 274.056 240.666 273.99 239.736 273.99H236.946C237.61 273.923 238.241 273.89 238.839 273.89H242.228L244.62 268.907H245.018L242.527 274.189ZM231.564 273.99C231.431 273.658 231.265 273.226 231.066 272.694C230.933 272.229 230.734 271.698 230.468 271.1C230.734 271.498 231.165 271.963 231.763 272.495C232.361 273.093 232.826 273.658 233.159 274.189L231.564 273.99ZM245.018 268.807H244.62C244.753 268.542 244.952 268.11 245.218 267.512C245.483 266.847 245.816 266.083 246.214 265.22L245.018 268.807Z" fill="white"/>
<path d="M288.67 264.921C290.065 261.134 291.028 257.047 291.56 252.662C292.092 248.211 292.49 243.759 292.756 239.308C292.756 238.643 292.723 238.012 292.656 237.414C292.656 236.883 292.656 236.384 292.656 235.919C292.457 240.836 292.058 245.753 291.46 250.669C290.929 255.719 289.799 260.369 288.072 264.622C287.806 264.09 287.607 263.625 287.474 263.226C287.341 262.828 287.275 262.363 287.275 261.831C287.275 260.237 287.54 258.576 288.072 256.848C288.603 255.121 288.936 253.327 289.068 251.466L290.464 250.868C290.464 247.613 290.597 244.391 290.862 241.201C291.128 237.946 291.261 234.69 291.261 231.435C291.261 229.774 291.195 228.146 291.062 226.551C290.995 224.957 290.796 223.296 290.464 221.568H289.866C290.264 226.285 290.464 230.803 290.464 235.122C290.464 237.315 290.397 239.407 290.264 241.401C290.132 243.261 289.899 245.155 289.567 247.081C289.766 245.62 289.899 244.224 289.965 242.896C290.098 241.367 290.165 239.74 290.165 238.012C290.165 232.631 289.932 227.182 289.467 221.668C289.068 216.087 288.703 210.373 288.371 204.526V201.736C288.57 200.938 288.67 200.075 288.67 199.144C288.736 198.214 288.836 197.317 288.969 196.454C289.102 195.59 289.334 194.892 289.666 194.361C290.065 193.763 290.696 193.464 291.56 193.464L293.254 193.962L293.852 195.158H294.749C295.015 194.759 295.314 194.56 295.646 194.56C296.045 194.56 296.443 194.726 296.842 195.058C297.241 195.324 297.706 195.457 298.237 195.457C299.234 195.457 299.932 196.155 300.33 197.55C300.729 198.879 300.995 200.573 301.127 202.633C301.26 204.626 301.327 206.852 301.327 209.31C301.327 211.702 301.46 213.961 301.725 216.087C301.925 218.014 302.091 219.974 302.224 221.967C302.423 223.894 302.523 225.854 302.523 227.847C302.523 229.84 302.456 232.165 302.323 234.823C302.191 237.481 301.991 240.238 301.725 243.095C301.526 245.885 301.26 248.676 300.928 251.466C300.596 254.257 300.231 256.748 299.832 258.941C299.433 261.134 298.968 262.927 298.437 264.323C297.905 265.652 297.374 266.316 296.842 266.316C296.709 266.316 296.51 266.249 296.244 266.117C296.709 263.991 297.141 261.864 297.54 259.738C298.005 257.612 298.403 255.386 298.736 253.061C298.271 255.187 297.772 257.38 297.241 259.639C296.776 261.831 296.244 263.891 295.646 265.818C295.38 265.552 295.048 265.419 294.649 265.419C294.517 265.419 294.351 265.585 294.151 265.917C294.018 266.249 293.819 266.648 293.553 267.113C293.287 267.512 292.955 267.877 292.557 268.209C292.158 268.542 291.726 268.708 291.261 268.708C290.796 268.708 290.431 268.608 290.165 268.409C289.899 268.209 289.666 267.977 289.467 267.711C289.334 267.379 289.168 267.047 288.969 266.715C288.836 266.382 288.637 266.083 288.371 265.818L288.67 264.921ZM300.231 236.218C299.832 237.547 299.533 238.776 299.334 239.906C299.201 240.969 299.101 241.999 299.035 242.995C299.035 243.992 299.035 245.022 299.035 246.085C299.035 247.015 299.001 248.045 298.935 249.174C299.201 246.915 299.433 244.856 299.633 242.995C299.898 241.002 300.098 238.743 300.231 236.218ZM289.567 247.48C289.567 247.347 289.567 247.214 289.567 247.081C289.567 247.214 289.567 247.347 289.567 247.48Z" fill="white"/>
<path d="M393.115 208.014C387.999 208.014 382.916 208.18 377.866 208.513C372.817 208.778 367.767 208.911 362.718 208.911C363.582 208.978 364.412 209.044 365.209 209.111C366.073 209.111 366.97 209.111 367.9 209.111C370.957 209.111 373.98 209.077 376.969 209.011C380.026 208.878 383.082 208.812 386.138 208.812H389.128C390.125 208.812 391.155 208.845 392.218 208.911C391.287 209.509 390.291 209.941 389.228 210.207C388.231 210.473 387.201 210.672 386.138 210.805C385.142 210.871 384.079 210.904 382.949 210.904C381.886 210.904 380.823 210.938 379.76 211.004L378.863 209.808C377.335 210.074 375.807 210.24 374.279 210.306C372.75 210.373 371.222 210.406 369.694 210.406L360.824 210.306L360.924 211.203L377.567 211.104C371.92 211.436 366.372 211.635 360.924 211.702C360.99 212.565 361.057 213.429 361.123 214.293C361.19 215.09 361.289 215.921 361.422 216.784L360.226 217.083C360.758 219.342 361.123 221.834 361.323 224.558C361.588 227.216 361.821 229.94 362.02 232.73C362.22 235.521 362.485 238.278 362.818 241.002C363.216 243.66 363.781 246.085 364.512 248.277L364.811 247.978C364.412 245.719 364.047 243.294 363.715 240.703C363.382 238.045 363.05 235.355 362.718 232.631C362.452 229.84 362.186 227.116 361.921 224.458C361.721 221.934 361.555 219.575 361.422 217.382C361.688 220.904 362.087 224.591 362.618 228.445C363.216 232.365 363.847 236.351 364.512 240.404C365.176 244.391 365.807 248.344 366.405 252.264C367.07 256.184 367.668 259.938 368.199 263.525C368.332 264.655 368.498 265.884 368.698 267.213C368.897 268.475 368.997 269.771 368.997 271.1V272.296C368.997 272.761 368.93 273.193 368.797 273.591C368.332 273.591 367.867 273.658 367.402 273.791C367.003 273.99 366.572 274.089 366.106 274.089C365.376 274.089 364.91 273.724 364.711 272.993C364.578 272.262 364.512 271.631 364.512 271.1H363.615C363.548 271.498 363.416 271.997 363.216 272.595C363.083 273.259 362.851 273.89 362.519 274.488C362.253 275.086 361.887 275.584 361.422 275.983C361.024 276.382 360.559 276.581 360.027 276.581C359.363 276.581 358.765 276.116 358.233 275.186C357.702 274.256 357.203 273.06 356.738 271.598C356.34 270.136 355.974 268.542 355.642 266.814C355.376 265.02 355.11 263.326 354.845 261.732C354.645 260.071 354.446 258.576 354.247 257.247C354.114 255.918 353.981 254.955 353.848 254.357C353.184 251.566 352.553 248.51 351.955 245.188C351.423 241.866 350.958 238.511 350.559 235.122C350.161 231.734 349.828 228.378 349.563 225.056C349.363 221.668 349.264 218.512 349.264 215.588C349.264 215.123 349.264 214.692 349.264 214.293C349.33 213.828 349.363 213.363 349.363 212.898V212.3C349.363 212.034 349.33 211.768 349.264 211.502C345.344 211.436 341.623 211.27 338.102 211.004C334.58 210.672 330.66 210.24 326.342 209.708C326.408 209.31 326.441 208.878 326.441 208.413C326.441 207.948 326.475 207.516 326.541 207.117C326.674 206.719 326.84 206.386 327.039 206.121C327.305 205.788 327.737 205.622 328.335 205.622C328.734 205.622 329.199 205.689 329.73 205.822L330.029 204.925C329.232 204.593 328.302 204.061 327.239 203.33C326.176 202.599 325.644 201.736 325.644 200.739C325.644 200.141 325.877 199.709 326.342 199.443C326.807 199.111 327.372 198.879 328.036 198.746C328.7 198.613 329.365 198.546 330.029 198.546C330.694 198.48 331.192 198.447 331.524 198.447C333.916 198.447 336.275 198.58 338.6 198.845C340.992 199.111 343.384 199.244 345.776 199.244C351.822 199.244 357.835 199.344 363.814 199.543C369.794 199.676 375.807 199.742 381.853 199.742C383.049 199.742 384.212 199.576 385.341 199.244C386.537 198.912 387.733 198.746 388.929 198.746C389.394 198.746 389.793 198.879 390.125 199.144C390.523 199.41 390.723 199.809 390.723 200.34C388.929 200.673 387.102 200.938 385.241 201.138C383.58 201.271 381.886 201.403 380.159 201.536C381.886 201.536 383.58 201.47 385.241 201.337C387.035 201.204 388.862 201.071 390.723 200.938V202.832L392.517 202.533C393.048 202.666 393.546 202.932 394.012 203.33C394.477 203.662 394.709 204.161 394.709 204.825C394.709 205.423 394.543 206.021 394.211 206.619C393.879 207.151 393.513 207.616 393.115 208.014ZM358.134 211.702C358.266 213.628 358.433 215.755 358.632 218.08C358.898 220.405 359.163 222.764 359.429 225.156C359.695 227.548 359.961 229.906 360.226 232.232C360.559 234.491 360.858 236.584 361.123 238.511C360.924 236.65 360.692 234.557 360.426 232.232C360.226 229.906 360.027 227.548 359.828 225.156C359.628 222.764 359.429 220.405 359.23 218.08C359.097 215.755 359.03 213.628 359.03 211.702H358.134ZM376.272 201.536H370.79C369.129 201.536 367.468 201.503 365.807 201.437C366.605 201.569 367.369 201.702 368.1 201.835C369.03 202.035 370.06 202.134 371.189 202.134C371.986 202.134 372.817 202.068 373.681 201.935C374.611 201.802 375.475 201.669 376.272 201.536ZM358.532 211.203H359.03V210.306H358.532V211.203Z" fill="white"/>
<path d="M457.795 254.755L457.197 254.456C454.406 253.725 451.449 253.26 448.327 253.061C445.204 252.862 442.015 252.43 438.759 251.765C441.948 252.43 445.071 252.961 448.127 253.36C451.184 253.692 454.207 254.357 457.197 255.353C456.266 255.951 455.27 256.25 454.207 256.25C452.944 256.117 451.682 255.918 450.42 255.652C449.224 255.386 447.928 255.187 446.533 255.054C446.533 254.656 446.633 254.357 446.832 254.157C444.905 254.157 442.978 253.958 441.052 253.559C439.191 253.161 437.364 252.729 435.57 252.264C433.776 251.732 432.016 251.267 430.288 250.868C428.627 250.403 427.066 250.171 425.604 250.171C425.604 250.37 425.571 250.47 425.504 250.47C427.232 250.802 428.86 251.267 430.388 251.865C431.916 252.463 433.643 252.928 435.57 253.26C437.431 253.725 439.224 254.058 440.952 254.257C442.746 254.456 444.506 254.722 446.234 255.054C443.443 254.788 440.586 254.39 437.663 253.858C434.806 253.327 431.982 252.729 429.192 252.064L424.508 250.868C422.847 255.121 421.153 259.306 419.425 263.426C417.764 267.479 416.136 271.598 414.542 275.784C414.409 275.518 414.176 275.352 413.844 275.285C413.578 275.285 413.279 275.285 412.947 275.285C412.681 275.285 412.416 275.186 412.15 274.986C411.884 274.854 411.751 274.521 411.751 273.99C411.751 273.458 411.884 272.694 412.15 271.698C412.416 270.767 412.914 269.505 413.645 267.911C413.512 267.778 413.279 267.711 412.947 267.711C412.681 267.645 412.482 267.612 412.349 267.612C411.02 270.402 409.725 272.528 408.462 273.99C407.266 275.518 406.303 276.282 405.572 276.282C404.775 276.282 404.376 275.518 404.376 273.99C404.376 272.727 404.609 271.133 405.074 269.206C405.539 267.213 406.104 265.087 406.768 262.828C407.499 260.569 408.296 258.243 409.16 255.852C410.024 253.393 410.854 251.001 411.652 248.676C410.921 248.211 410.123 247.879 409.26 247.679C408.462 247.48 407.565 247.314 406.569 247.181C406.768 246.915 406.868 246.583 406.868 246.184C406.868 245.786 406.901 245.387 406.967 244.988C407.034 244.59 407.167 244.258 407.366 243.992C407.565 243.726 407.931 243.593 408.462 243.593C408.595 243.593 408.994 243.66 409.658 243.793V242.896C408.595 242.364 407.765 241.733 407.167 241.002C406.635 240.271 406.369 239.54 406.369 238.809C406.369 237.215 407.898 236.418 410.954 236.418C411.818 236.418 412.681 236.484 413.545 236.617C414.475 236.683 415.405 236.783 416.336 236.916L420.92 226.452C421.917 224.193 422.98 221.867 424.109 219.475C425.305 217.083 426.7 214.725 428.295 212.399C429.889 210.074 431.683 207.881 433.677 205.822C435.736 203.696 438.095 201.802 440.753 200.141L442.247 199.543C444.108 200.008 445.603 200.407 446.732 200.739C447.928 201.005 448.892 201.204 449.622 201.337C450.287 201.603 450.818 201.769 451.217 201.835H451.117L451.217 202.134C451.217 202.201 451.184 202.267 451.117 202.334L452.313 204.426C456.632 211.668 460.286 219.176 463.276 226.95C466.266 234.723 468.824 242.364 470.95 249.872C471.481 251.533 472.113 253.327 472.843 255.254C473.641 257.114 474.372 258.908 475.036 260.635C475.767 262.296 476.365 263.824 476.83 265.22C477.295 266.548 477.527 267.512 477.527 268.11C477.527 268.575 477.428 268.874 477.228 269.007C477.029 269.073 476.763 269.106 476.431 269.106C474.704 264.788 473.076 260.536 471.548 256.35C470.02 252.231 468.525 248.078 467.063 243.892C468.392 248.078 469.787 252.231 471.249 256.35C472.777 260.536 474.305 264.788 475.833 269.106H475.136C474.737 269.106 474.471 269.306 474.338 269.704C474.471 269.837 474.637 270.203 474.837 270.801C475.036 271.332 475.235 271.897 475.435 272.495C475.634 273.159 475.8 273.824 475.933 274.488C476.066 275.153 476.132 275.651 476.132 275.983C476.132 277.445 475.7 278.176 474.837 278.176C474.372 278.176 474.006 278.076 473.74 277.877C473.475 277.677 473.176 277.412 472.843 277.079L471.847 276.083C471.448 275.684 470.95 275.285 470.352 274.887L460.784 247.38C462.18 251.699 463.542 256.018 464.871 260.336C466.266 264.655 467.694 268.907 469.156 273.093C468.093 271.831 467.096 270.302 466.166 268.508C465.302 266.715 464.472 264.821 463.675 262.828C462.944 260.835 462.246 258.808 461.582 256.748C460.917 254.622 460.253 252.629 459.588 250.769C459.588 250.902 459.588 251.035 459.588 251.167C459.655 251.234 459.688 251.334 459.688 251.466C459.688 252.529 459.356 253.327 458.692 253.858L457.795 254.755ZM457.197 244.391C457.33 244.391 457.529 244.357 457.795 244.291C458.06 244.158 458.26 244.092 458.393 244.092C456.2 238.577 454.007 233.228 451.815 228.046C449.689 222.864 447.33 217.881 444.739 213.097L444.141 213.695L445.636 216.386C447.961 220.638 450.054 225.023 451.915 229.541C453.775 234.059 455.536 238.71 457.197 243.494C455.27 238.311 453.177 233.162 450.918 228.046C448.725 222.864 446.367 218.18 443.842 213.994L443.443 214.193C441.184 216.519 439.058 219.309 437.065 222.565C435.138 225.82 433.311 229.142 431.584 232.531L428.993 238.809L430.687 239.208C431.683 239.474 432.647 239.773 433.577 240.105C434.574 240.371 435.437 240.67 436.168 241.002C437.63 241.733 439.557 242.298 441.948 242.696C444.34 243.095 446.666 243.494 448.925 243.892C451.25 244.224 453.243 244.623 454.904 245.088C456.632 245.487 457.496 246.085 457.496 246.882L445.337 245.487C446.068 245.62 446.965 245.786 448.028 245.985C449.091 246.118 450.154 246.284 451.217 246.483C452.346 246.683 453.443 246.882 454.506 247.081C455.569 247.214 456.466 247.347 457.197 247.48C457.197 247.679 457.163 247.879 457.097 248.078C457.097 248.211 457.097 248.344 457.097 248.477C457.097 248.609 457.163 248.709 457.296 248.776C457.496 248.776 457.695 248.809 457.894 248.875C458.16 248.875 458.393 248.942 458.592 249.075C458.791 249.141 458.991 249.34 459.19 249.673L457.197 244.391ZM435.57 223.063C435.703 223.063 435.736 223.163 435.67 223.362C435.67 223.495 435.703 223.561 435.769 223.561C435.902 223.561 436.301 223.096 436.965 222.166C437.63 221.236 438.394 220.173 439.258 218.977C440.121 217.781 440.952 216.652 441.749 215.588C442.546 214.525 443.111 213.828 443.443 213.496L442.945 212.798C441.55 214.127 440.254 215.688 439.058 217.482C437.862 219.276 436.7 221.136 435.57 223.063ZM445.636 212.3C447.762 215.887 449.722 219.641 451.516 223.561C453.243 227.415 454.871 231.268 456.399 235.122C455.137 231.268 453.609 227.415 451.815 223.561C449.955 219.641 447.928 215.887 445.736 212.3H445.636ZM460.884 227.249C462.944 232.564 464.97 237.979 466.963 243.494C465.103 238.112 463.143 232.797 461.083 227.548C459.157 222.365 456.931 217.15 454.406 211.901C456.798 216.951 458.957 222.066 460.884 227.249ZM446.234 210.107C447.098 210.306 447.696 210.506 448.028 210.705C448.36 210.904 448.593 211.004 448.725 211.004L448.825 210.705C448.892 210.705 448.759 210.672 448.426 210.605C448.094 210.539 447.828 210.473 447.629 210.406L447.828 210.007L446.633 209.609L446.234 210.107ZM441.351 209.111L442.148 211.203L442.048 209.111C441.915 209.111 441.749 209.077 441.55 209.011C441.417 208.944 441.284 208.911 441.151 208.911L441.351 209.111ZM443.942 212.001L443.244 212.499L443.842 213.296L444.44 212.698L443.942 212.001ZM445.337 211.801H445.437L444.938 211.104V211.203L445.337 211.801Z" fill="white"/>
<path d="M485.6 264.323C485.6 263.924 485.833 263.559 486.298 263.226C486.763 262.894 487.294 262.595 487.892 262.329C488.557 262.064 489.188 261.831 489.786 261.632C490.45 261.433 490.948 261.266 491.281 261.134C494.47 261.532 497.659 261.864 500.848 262.13C504.037 262.396 507.226 262.529 510.416 262.529C511.612 262.529 513.273 262.529 515.399 262.529C517.525 262.462 519.85 262.329 522.375 262.13C524.9 261.931 527.458 261.632 530.049 261.233C532.64 260.768 534.999 260.137 537.125 259.34C539.251 258.542 540.978 257.546 542.307 256.35C543.636 255.154 544.3 253.659 544.3 251.865C544.3 250.403 543.968 249.108 543.304 247.978C542.706 246.782 541.875 245.753 540.812 244.889C539.816 243.959 538.686 243.195 537.424 242.597C536.959 242.331 536.46 242.098 535.929 241.899C536.46 242.165 536.959 242.431 537.424 242.696C538.62 243.361 539.683 244.191 540.613 245.188C541.609 246.118 542.407 247.181 543.005 248.377C543.603 249.506 543.902 250.802 543.902 252.264C543.902 253.858 543.304 255.22 542.108 256.35C540.978 257.413 539.483 258.31 537.623 259.041C535.829 259.772 533.803 260.336 531.544 260.735C529.351 261.134 527.159 261.433 524.966 261.632C522.774 261.831 520.747 261.964 518.887 262.031C517.026 262.031 515.565 262.031 514.502 262.031C511.113 262.031 507.692 261.931 504.237 261.732C500.848 261.466 497.46 261.167 494.071 260.835C495.267 260.502 496.463 260.27 497.659 260.137C498.921 259.938 500.184 259.838 501.446 259.838C503.572 259.838 505.665 259.871 507.725 259.938C509.784 259.938 511.844 259.938 513.904 259.938C516.362 259.938 518.787 259.904 521.179 259.838C523.571 259.705 526.029 259.439 528.554 259.041L528.853 260.237C529.849 260.037 531.112 259.738 532.64 259.34C534.168 258.875 535.63 258.31 537.025 257.645C538.487 256.981 539.716 256.151 540.713 255.154C541.776 254.157 542.307 252.995 542.307 251.666C542.307 249.739 541.61 248.045 540.214 246.583C538.819 245.121 537.025 243.826 534.833 242.696C532.706 241.5 530.281 240.471 527.557 239.607C524.833 238.743 522.142 237.979 519.485 237.315C516.894 236.65 514.435 236.052 512.11 235.521C509.784 234.989 507.924 234.491 506.529 234.026V234.624C507.924 235.155 509.751 235.72 512.01 236.318C514.269 236.849 516.694 237.447 519.285 238.112C521.943 238.776 524.601 239.54 527.258 240.404C529.916 241.201 532.308 242.165 534.434 243.294C536.626 244.424 538.387 245.719 539.716 247.181C541.111 248.643 541.809 250.304 541.809 252.164C541.809 253.227 541.311 254.157 540.314 254.955C539.317 255.752 538.121 256.449 536.726 257.047C535.397 257.579 534.035 258.011 532.64 258.343C531.245 258.675 530.182 258.908 529.451 259.041C530.315 258.841 531.411 258.576 532.74 258.243C534.135 257.845 535.464 257.346 536.726 256.748C538.055 256.151 539.184 255.453 540.115 254.656C541.045 253.792 541.51 252.795 541.51 251.666C541.51 249.805 540.779 248.244 539.317 246.982C537.856 245.719 535.929 244.59 533.537 243.593C531.145 242.597 528.421 241.7 525.365 240.902C522.308 240.105 519.153 239.241 515.897 238.311C512.708 237.381 509.585 236.318 506.529 235.122C503.473 233.926 500.748 232.431 498.357 230.637C495.965 228.843 494.038 226.717 492.576 224.259C491.115 221.801 490.384 218.844 490.384 215.389C490.384 212.001 491.181 209.144 492.776 206.818C494.437 204.426 496.529 202.5 499.054 201.038C501.645 199.51 504.469 198.414 507.525 197.749C510.582 197.085 513.538 196.753 516.395 196.753C520.581 196.753 524.667 197.351 528.654 198.546C532.706 199.742 536.527 201.403 540.115 203.529C539.716 203.662 539.483 203.862 539.417 204.127C539.351 204.327 539.284 204.559 539.218 204.825C539.218 205.091 539.151 205.323 539.018 205.523C538.952 205.722 538.753 205.822 538.42 205.822C538.155 205.822 537.623 205.722 536.826 205.523C536.095 205.257 535.298 204.991 534.434 204.725C533.57 204.393 532.74 204.094 531.942 203.828C531.145 203.563 530.614 203.363 530.348 203.231L530.049 204.127C530.647 204.393 531.411 204.792 532.341 205.323C533.338 205.788 534.268 206.386 535.132 207.117C536.062 207.782 536.826 208.513 537.424 209.31C538.088 210.107 538.42 210.904 538.42 211.702C538.42 212.565 538.022 212.997 537.224 212.997C536.228 212.997 535.032 212.732 533.637 212.2C532.308 211.668 530.813 211.104 529.152 210.506C527.491 209.841 525.697 209.243 523.77 208.712C521.91 208.18 520.016 207.915 518.089 207.915C516.827 207.915 515.332 208.047 513.605 208.313C511.944 208.513 510.316 208.944 508.721 209.609C507.193 210.207 505.898 211.071 504.835 212.2C503.772 213.263 503.24 214.625 503.24 216.286C503.24 217.814 503.938 219.11 505.333 220.173C506.795 221.236 508.688 222.199 511.014 223.063C513.405 223.927 516.096 224.757 519.086 225.555C522.076 226.352 525.132 227.249 528.255 228.245C531.444 229.176 534.534 230.272 537.523 231.534C540.513 232.797 543.171 234.325 545.496 236.119C547.888 237.913 549.782 240.039 551.177 242.497C552.639 244.955 553.37 247.845 553.37 251.167C553.37 254.423 552.705 257.18 551.376 259.439C550.047 261.698 548.287 263.592 546.094 265.12C543.902 266.582 541.41 267.744 538.62 268.608C535.829 269.405 532.939 270.037 529.949 270.502C527.026 270.9 524.102 271.133 521.179 271.199C518.322 271.332 515.731 271.399 513.405 271.399H503.439C502.841 271.399 502.011 271.365 500.948 271.299C499.951 271.299 498.955 271.233 497.958 271.1C496.961 271.033 496.098 270.867 495.367 270.601C494.636 270.336 494.271 270.003 494.271 269.605L494.37 269.106C497.094 269.239 499.785 269.372 502.443 269.505C505.1 269.572 507.791 269.605 510.515 269.605C513.04 269.605 515.565 269.605 518.089 269.605C520.348 269.538 522.607 269.405 524.866 269.206C523.737 269.273 522.607 269.339 521.478 269.405C520.083 269.405 518.721 269.405 517.392 269.405H513.405C507.16 269.405 501.014 269.206 494.968 268.807C495.101 268.276 495.167 267.911 495.167 267.711C495.167 267.445 495.101 267.18 494.968 266.914C494.835 266.914 494.636 266.947 494.37 267.014C494.171 267.014 493.905 267.014 493.573 267.014C492.842 267.014 492.012 266.98 491.081 266.914C490.218 266.847 489.354 266.715 488.49 266.515C487.693 266.316 486.995 266.05 486.397 265.718C485.866 265.319 485.6 264.854 485.6 264.323ZM546.792 261.732C545.662 262.728 544.466 263.559 543.204 264.223C542.075 264.821 540.912 265.386 539.716 265.917C540.912 265.519 542.075 265.054 543.204 264.522C544.466 263.991 545.662 263.06 546.792 261.732Z" fill="white"/>
</svg>
